<?xml version="1.0" encoding="utf-8"?>
<svg xmlns="http://www.w3.org/2000/svg" viewBox="0 0 336 120">
    <g>
        <polygon points="336,60 336,54 312,54 312,0 258,0 258,54.1 192.3,54.1 192.3,90.2 239.7,90.2 239.7,114 192,114 192,120 264,120
		264,84.1 216.2,84.1 216.2,60.2 264,60.2 264,6.2 288,6.2 288,120 336,120 336,114 312.3,114 312.3,60"/>
        <polygon points="47.7,113.7 23.9,113.7 23.9,54 0,54 0,120 72,120 72,54.4 47.7,54.4"/>
        <polygon points="96,120 120,120 120,60.3 144,60.3 144,120 168,120 168,54.3 96,54.3"/>
    </g>
</svg>